<svg width="648" height="633" viewBox="0 0 648 633" fill="none" xmlns="http://www.w3.org/2000/svg">
<g clip-path="url(#clip0_236_53)">
<path d="M411.145 142.174H236.636C232.659 142.178 228.846 143.76 226.034 146.572C223.222 149.384 221.641 153.197 221.636 157.174V545.024L219.636 545.634L176.826 558.744C174.797 559.362 172.605 559.151 170.732 558.155C168.859 557.16 167.458 555.461 166.836 553.434L39.4956 137.484C38.8759 135.455 39.0871 133.263 40.0828 131.39C41.0785 129.516 42.7772 128.115 44.8056 127.494L110.776 107.294L302.026 48.7537L367.996 28.5536C368.999 28.2447 370.055 28.1367 371.1 28.2359C372.146 28.3351 373.162 28.6396 374.09 29.1319C375.018 29.6242 375.839 30.2946 376.508 31.1048C377.177 31.915 377.679 32.8491 377.986 33.8537L410.536 140.174L411.145 142.174Z" fill="#F2F2F2"/>
<path d="M449.226 140.174L409.996 12.034C409.344 9.89894 408.277 7.91342 406.856 6.1909C405.436 4.46837 403.69 3.04261 401.718 1.99507C399.747 0.947523 397.588 0.298728 395.366 0.0857789C393.143 -0.12717 390.901 0.0999007 388.766 0.753992L296.016 29.144L104.776 87.694L12.0265 116.094C7.71782 117.417 4.1101 120.396 1.99524 124.376C-0.119617 128.356 -0.568843 133.013 0.746189 137.324L134.826 575.254C135.895 578.734 138.05 581.78 140.977 583.945C143.903 586.11 147.446 587.28 151.087 587.284C152.771 587.285 154.447 587.032 156.056 586.534L219.636 567.074L221.636 566.454V564.364L219.636 564.974L155.466 584.624C151.663 585.783 147.555 585.387 144.044 583.522C140.533 581.656 137.905 578.474 136.736 574.674L2.6666 136.734C2.08769 134.851 1.88592 132.872 2.07285 130.911C2.25977 128.95 2.8317 127.045 3.75592 125.305C4.68014 123.565 5.9385 122.025 7.4589 120.772C8.97929 119.519 10.7319 118.579 12.6163 118.004L105.366 89.604L296.607 31.064L389.357 2.66401C390.786 2.22781 392.272 2.0054 393.766 2.00401C396.973 2.01121 400.094 3.04516 402.671 4.95443C405.248 6.8637 407.146 9.54794 408.087 12.614L447.136 140.174L447.756 142.174H449.837L449.226 140.174Z" fill="#1A8CF7"/>
<path d="M122.681 127.821C120.754 127.82 118.878 127.201 117.328 126.055C115.778 124.909 114.636 123.297 114.07 121.454L101.189 79.3825C100.843 78.2524 100.723 77.0651 100.836 75.8886C100.949 74.7121 101.292 73.5693 101.847 72.5255C102.401 71.4817 103.156 70.5574 104.068 69.8053C104.979 69.0532 106.03 68.4881 107.161 68.1423L283.1 14.2785C285.382 13.582 287.847 13.8195 289.955 14.9389C292.062 16.0583 293.64 17.9681 294.34 20.2492L307.221 62.3215C307.917 64.6038 307.679 67.0691 306.56 69.1764C305.44 71.2837 303.531 72.861 301.25 73.5622L125.311 127.426C124.459 127.687 123.572 127.821 122.681 127.821V127.821Z" fill="#1A8CF7"/>
<path d="M190.154 44.9546C201.2 44.9546 210.154 36.0003 210.154 24.9546C210.154 13.9089 201.2 4.95459 190.154 4.95459C179.109 4.95459 170.154 13.9089 170.154 24.9546C170.154 36.0003 179.109 44.9546 190.154 44.9546Z" fill="#1A8CF7"/>
<path d="M190.153 37.6193C197.147 37.6193 202.818 31.9491 202.818 24.9547C202.818 17.9602 197.147 12.29 190.153 12.29C183.158 12.29 177.488 17.9602 177.488 24.9547C177.488 31.9491 183.158 37.6193 190.153 37.6193Z" fill="white"/>
<path d="M602.637 582.174H264.637C262.383 582.171 260.223 581.275 258.629 579.681C257.036 578.088 256.139 575.927 256.137 573.674V168.674C256.139 166.42 257.036 164.26 258.629 162.666C260.223 161.073 262.383 160.176 264.637 160.174H602.637C604.89 160.176 607.051 161.073 608.644 162.666C610.238 164.26 611.134 166.42 611.137 168.674V573.674C611.134 575.927 610.238 578.088 608.644 579.681C607.051 581.275 604.89 582.171 602.637 582.174V582.174Z" fill="#E6E6E6"/>
<path d="M447.137 140.174H236.637C232.13 140.18 227.81 141.973 224.623 145.16C221.436 148.347 219.643 152.667 219.637 157.174V564.974L221.637 564.364V157.174C221.642 153.197 223.223 149.385 226.035 146.573C228.847 143.761 232.66 142.179 236.637 142.174H447.757L447.137 140.174ZM630.637 140.174H236.637C232.13 140.18 227.81 141.973 224.623 145.16C221.436 148.347 219.643 152.667 219.637 157.174V615.174C219.643 619.681 221.436 624.001 224.623 627.188C227.81 630.374 232.13 632.167 236.637 632.174H630.637C635.143 632.167 639.464 630.374 642.651 627.188C645.837 624.001 647.63 619.681 647.637 615.174V157.174C647.63 152.667 645.837 148.347 642.651 145.16C639.464 141.973 635.143 140.18 630.637 140.174V140.174ZM645.637 615.174C645.632 619.151 644.05 622.963 641.238 625.775C638.426 628.587 634.613 630.169 630.637 630.174H236.637C232.66 630.169 228.847 628.587 226.035 625.775C223.223 622.963 221.642 619.151 221.637 615.174V157.174C221.642 153.197 223.223 149.385 226.035 146.573C228.847 143.761 232.66 142.179 236.637 142.174H630.637C634.613 142.179 638.426 143.761 641.238 146.573C644.05 149.385 645.632 153.197 645.637 157.174V615.174Z" fill="#1A8CF7"/>
<path d="M525.637 184.174H341.637C339.251 184.171 336.963 183.222 335.276 181.535C333.588 179.848 332.639 177.56 332.637 175.174V131.174C332.639 128.788 333.589 126.5 335.276 124.813C336.963 123.126 339.251 122.177 341.637 122.174H525.637C528.023 122.177 530.31 123.126 531.998 124.813C533.685 126.5 534.634 128.788 534.637 131.174V175.174C534.634 177.56 533.685 179.848 531.998 181.535C530.31 183.222 528.023 184.171 525.637 184.174V184.174Z" fill="#1A8CF7"/>
<path d="M433.637 125.174C444.682 125.174 453.637 116.22 453.637 105.174C453.637 94.1281 444.682 85.1738 433.637 85.1738C422.591 85.1738 413.637 94.1281 413.637 105.174C413.637 116.22 422.591 125.174 433.637 125.174Z" fill="#1A8CF7"/>
<path d="M433.637 117.356C440.365 117.356 445.819 111.902 445.819 105.174C445.819 98.4462 440.365 92.9922 433.637 92.9922C426.909 92.9922 421.455 98.4462 421.455 105.174C421.455 111.902 426.909 117.356 433.637 117.356Z" fill="white"/>
</g>
<defs>
<clipPath id="clip0_236_53">
<rect width="647.636" height="632.174" fill="white"/>
</clipPath>
</defs>
</svg>
