<svg width="335" height="151" viewBox="0 0 335 151" fill="none" xmlns="http://www.w3.org/2000/svg">
<path d="M18.391 36.8776H0V25.1929H49.5113V36.8776H31.1166V85.5448H18.391V36.8776Z" fill="#1A8BF6"/>
<path d="M58.1934 25.1929H70.9134V85.5448H58.1934V25.1929Z" fill="#1A8BF6"/>
<path d="M137.528 72.9822L143.03 77.9022L136.584 85.5448L130.568 80.1868C125.226 84.3327 118.587 86.5936 111.743 86.5971C94.8091 86.5971 80.3672 72.2788 80.3672 55.3234C80.3672 38.3679 94.8091 24.1387 111.743 24.1387C128.848 24.1387 143.117 38.3697 143.117 55.3252C143.11 61.6187 141.164 67.767 137.528 72.9822ZM121.197 71.9281L114.316 65.7794L120.762 58.1368L127.896 64.4617C129.384 61.6332 130.151 58.5001 130.132 55.3252C130.132 44.8709 121.708 35.916 111.737 35.916C101.851 35.916 93.4272 44.8763 93.4272 55.3252C93.4272 65.8667 101.851 74.8287 111.737 74.8287C115.122 74.8197 118.423 73.8075 121.197 71.9281Z" fill="#1A8BF6"/>
<path d="M0.265625 142.854L6.41251 135.786C11.1131 139.704 16.4643 142.091 22.7563 142.091C28.1093 142.091 30.8584 139.709 30.8584 136.698C30.8584 133.263 27.9641 132.211 20.3711 130.53C9.88379 128.215 2.43404 125.344 2.43404 116.023C2.43404 107.119 9.9573 101.026 20.8102 101.026C28.9105 101.026 35.2026 103.478 40.2652 107.684L34.6972 115.111C30.2869 111.678 25.2941 109.787 20.5217 109.787C15.9645 109.787 13.2172 112.102 13.2172 114.972C13.2172 118.475 16.1813 119.602 23.8479 121.279C34.5502 123.594 41.6379 126.675 41.6379 135.574C41.6379 144.755 34.4712 150.852 22.3281 150.852C13.7171 150.843 6.05049 148.041 0.265625 142.854Z" fill="black"/>
<path d="M49.2305 129.198V101.857H59.8612V128.769C59.8612 136.197 64.7787 141.452 71.7212 141.452C78.5921 141.452 83.5097 136.197 83.5097 128.769V101.857H94.2139V129.198C94.2139 141.883 84.8842 150.852 71.7212 150.852C58.4866 150.843 49.2305 141.874 49.2305 129.198Z" fill="black"/>
<path d="M101.955 125.895C101.955 112.362 114.105 101.017 128.353 101.017C131.968 101.018 135.544 101.734 138.864 103.119C142.184 104.505 145.178 106.532 147.662 109.076L139.924 115.804C137.03 112.581 132.91 110.408 128.347 110.408C120.03 110.408 112.942 117.556 112.942 125.9C112.942 134.31 120.03 141.458 128.347 141.458C132.904 141.458 137.024 139.287 139.924 136.062L147.662 142.79C142.817 147.695 135.874 150.849 128.353 150.849C114.105 150.844 101.955 139.421 101.955 125.895Z" fill="black"/>
<path d="M152.295 125.895C152.295 112.362 164.445 101.017 178.692 101.017C182.308 101.018 185.885 101.734 189.206 103.119C192.524 104.505 195.52 106.532 198.004 109.076L190.264 115.804C187.372 112.581 183.25 110.408 178.687 110.408C170.37 110.408 163.282 117.556 163.282 125.9C163.282 134.31 170.37 141.458 178.687 141.458C183.244 141.458 187.366 139.287 190.264 136.062L198.004 142.79C193.156 147.695 186.216 150.849 178.692 150.849C164.445 150.844 152.295 139.421 152.295 125.895Z" fill="black"/>
<path d="M215.29 111.179V120.779H240.242V130.1H215.29V140.681H242.855V150.003H204.588V101.857H242.846V111.179H215.29Z" fill="black"/>
<path d="M247.695 142.854L253.842 135.777C258.543 139.695 263.894 142.083 270.186 142.083C275.539 142.083 278.288 139.7 278.288 136.689C278.288 133.254 275.394 132.202 267.801 130.521C257.313 128.206 249.864 125.336 249.864 116.014C249.864 107.111 257.385 101.017 268.24 101.017C276.34 101.017 282.632 103.469 287.695 107.675L282.125 115.102C277.715 111.669 272.724 109.778 267.95 109.778C263.394 109.778 260.647 112.093 260.647 114.963C260.647 118.466 263.611 119.593 271.278 121.27C281.98 123.585 289.068 126.666 289.068 135.565C289.068 144.747 281.901 150.844 269.758 150.844C261.141 150.844 253.48 148.041 247.695 142.854Z" fill="black"/>
<path d="M293.484 142.854L299.633 135.777C304.334 139.695 309.685 142.083 315.977 142.083C321.33 142.083 324.077 139.7 324.077 136.689C324.077 133.254 321.185 132.202 313.592 130.521C303.104 128.206 295.655 125.336 295.655 116.014C295.655 107.111 303.176 101.017 314.031 101.017C322.131 101.017 328.423 103.469 333.486 107.675L327.916 115.102C323.506 111.669 318.515 109.778 313.741 109.778C309.185 109.778 306.436 112.093 306.436 114.963C306.436 118.466 309.402 119.593 317.069 121.27C327.771 123.585 334.859 126.666 334.859 135.565C334.859 144.747 327.692 150.844 315.549 150.844C306.93 150.844 299.264 148.041 293.484 142.854Z" fill="black"/>
<path d="M161.159 45.6242H150.868C150.137 45.6242 149.436 45.3427 148.919 44.8418C148.402 44.3409 148.111 43.6616 148.111 42.9532C148.111 42.2447 148.402 41.5654 148.919 41.0645C149.436 40.5636 150.137 40.2822 150.868 40.2822H161.159C161.89 40.2822 162.591 40.5636 163.108 41.0645C163.625 41.5654 163.915 42.2447 163.915 42.9532C163.915 43.6616 163.625 44.3409 163.108 44.8418C162.591 45.3427 161.89 45.6242 161.159 45.6242Z" fill="#1A8BF6"/>
<path d="M125.636 11.3179V2.67099C125.636 1.96261 125.346 1.28322 124.829 0.78231C124.312 0.281403 123.611 0 122.879 0C122.148 0 121.447 0.281403 120.93 0.78231C120.414 1.28322 120.123 1.96261 120.123 2.67099V11.3179C120.123 12.0263 120.414 12.7057 120.93 13.2066C121.447 13.7075 122.148 13.9889 122.879 13.9889C123.611 13.9889 124.312 13.7075 124.829 13.2066C125.346 12.7057 125.636 12.0263 125.636 11.3179Z" fill="#1A8BF6"/>
<path d="M147.476 22.1798L155.478 14.4303C155.996 13.9292 156.286 13.2496 156.286 12.541C156.286 11.8324 155.996 11.1528 155.478 10.6517C154.961 10.1506 154.26 9.86914 153.529 9.86914C152.797 9.86914 152.096 10.1506 151.579 10.6517L143.585 18.3994C143.314 18.6436 143.096 18.9381 142.945 19.2655C142.794 19.593 142.713 19.9465 142.706 20.3051C142.699 20.6637 142.766 21.02 142.904 21.3528C143.042 21.6856 143.248 21.988 143.51 22.2421C143.771 22.496 144.083 22.6963 144.426 22.8311C144.768 22.9659 145.136 23.0325 145.506 23.0266C145.876 23.0208 146.241 22.9428 146.58 22.7973C146.918 22.6518 147.223 22.4417 147.476 22.1798Z" fill="#1A8BF6"/>
<path d="M162.461 56.2367C162.461 54.2583 164.203 52.4741 166.445 52.4741C167.47 52.491 168.447 52.8929 169.172 53.5949C169.897 54.2968 170.312 55.2439 170.33 56.2367C170.33 58.361 168.588 60.0971 166.445 60.0971C165.921 60.1 165.402 60.002 164.917 59.8092C164.432 59.6162 163.992 59.3318 163.621 58.9728C163.251 58.6138 162.958 58.187 162.758 57.7175C162.559 57.2477 162.458 56.7445 162.461 56.2367ZM162.759 63.5249H170.03V88.4773H162.753L162.759 63.5249Z" fill="black"/>
<path d="M191.639 86.884C190.145 88.1875 187.804 89.0562 185.711 89.0562C181.179 89.0562 177.993 85.9189 177.993 81.4316V69.2197H174.457V63.5216H177.993V56.6733H184.976V63.5253H190.553V69.2234H184.976V80.3241C184.976 81.9658 186.078 83.1233 187.416 83.1233C188.412 83.1233 189.408 82.7849 189.906 82.3024L191.639 86.884Z" fill="black"/>
<path d="M225.352 86.884C223.858 88.1875 221.517 89.0562 219.425 89.0562C214.892 89.0562 211.707 85.9189 211.707 81.4316V69.2197H208.17V63.5216H211.709V56.6733H218.692V63.5253H224.269V69.2234H218.692V80.3241C218.692 81.9658 219.795 83.1233 221.131 83.1233C222.127 83.1233 223.123 82.7849 223.623 82.3024L225.352 86.884Z" fill="black"/>
<path d="M228.432 75.9772C228.432 68.8812 234.863 62.9463 242.528 62.9463C250.147 62.9463 256.524 68.8812 256.524 75.9772C256.524 83.0731 250.147 89.0561 242.528 89.0561C234.863 89.0561 228.432 83.0784 228.432 75.9772ZM249.599 75.9772C249.599 72.1149 246.363 68.8812 242.528 68.8812C238.643 68.8812 235.405 72.1149 235.405 75.9772C235.405 79.8394 238.643 83.1194 242.528 83.1194C246.369 83.1194 249.605 79.8376 249.605 75.9772H249.599Z" fill="black"/>
</svg>
